<?xml version="1.0" encoding="UTF-8" standalone="no"?>
<!-- Created with Inkscape (http://www.inkscape.org/) -->

<svg
   xmlns:dc="http://purl.org/dc/elements/1.1/"
   xmlns:cc="http://creativecommons.org/ns#"
   xmlns:rdf="http://www.w3.org/1999/02/22-rdf-syntax-ns#"
   xmlns:svg="http://www.w3.org/2000/svg"
   xmlns="http://www.w3.org/2000/svg"
   xmlns:sodipodi="http://sodipodi.sourceforge.net/DTD/sodipodi-0.dtd"
   xmlns:inkscape="http://www.inkscape.org/namespaces/inkscape"
   width="287.53265"
   height="45.010971"
   viewBox="0 0 76.076351 11.909152"
   version="1.1"
   id="svg5299"
   inkscape:version="0.92.0 r15299"
   sodipodi:docname="courtyard by marriott.svg">
  <defs
     id="defs5293">
    <clipPath
       id="clipPath2981"
       clipPathUnits="userSpaceOnUse">
      <path
         inkscape:connector-curvature="0"
         id="path2979"
         d="M 34.72,680.497 H 264.4 v 54.48 H 34.72 Z" />
    </clipPath>
    <clipPath
       id="clipPath2959"
       clipPathUnits="userSpaceOnUse">
      <path
         inkscape:connector-curvature="0"
         id="path2957"
         d="M 0,0 H 612 V 792 H 0 Z" />
    </clipPath>
    <clipPath
       id="clipPath2967"
       clipPathUnits="userSpaceOnUse">
      <path
         inkscape:connector-curvature="0"
         id="path2965"
         d="M -10,803.212 H 307 V 622.148 H -10 Z" />
    </clipPath>
    <clipPath
       id="clipPath2911"
       clipPathUnits="userSpaceOnUse">
      <path
         inkscape:connector-curvature="0"
         id="path2909"
         d="M 0,622.008 H 306 V 792 H 0 Z" />
    </clipPath>
  </defs>
  <sodipodi:namedview
     id="base"
     pagecolor="#ffffff"
     bordercolor="#666666"
     borderopacity="1.0"
     inkscape:pageopacity="0.0"
     inkscape:pageshadow="2"
     inkscape:zoom="3.1305335"
     inkscape:cx="143.26631"
     inkscape:cy="22.005487"
     inkscape:document-units="mm"
     inkscape:current-layer="layer1"
     showgrid="false"
     fit-margin-top="0"
     fit-margin-left="0"
     fit-margin-right="0"
     fit-margin-bottom="0"
     units="px"
     inkscape:window-width="1280"
     inkscape:window-height="744"
     inkscape:window-x="-4"
     inkscape:window-y="-4"
     inkscape:window-maximized="1" />
  <metadata
     id="metadata5296">
    <rdf:RDF>
      <cc:Work
         rdf:about="">
        <dc:format>image/svg+xml</dc:format>
        <dc:type
           rdf:resource="http://purl.org/dc/dcmitype/StillImage" />
        <dc:title></dc:title>
      </cc:Work>
    </rdf:RDF>
  </metadata>
  <g
     inkscape:label="Layer 1"
     inkscape:groupmode="layer"
     id="layer1"
     transform="translate(-58.244602,-171.45743)">
    <g
       id="g5692"
       style="fill:#525759;fill-opacity:1"
       transform="translate(0.13229499,-0.13228805)">
      <path
         inkscape:connector-curvature="0"
         id="path2987"
         style="fill:#525759;fill-opacity:1;fill-rule:nonzero;stroke:none;stroke-width:0.12914599"
         d="m 104.62516,182.61275 c 0,0.20712 -0.16789,0.31577 -0.44461,0.31577 h -0.67196 v -0.63154 h 0.64223 c 0.3195,0 0.47434,0.11498 0.47434,0.30906 z m -1.11657,-1.26966 h 0.5829 c 0.26031,0 0.40533,0.11188 0.40533,0.2928 v 0.007 c 0,0.21034 -0.17462,0.31241 -0.43492,0.31241 h -0.55331 z m 1.06384,0.74664 c 0.17138,-0.0887 0.32945,-0.23692 0.32945,-0.51295 v -0.007 c 0,-0.15459 -0.0526,-0.2795 -0.15484,-0.38158 -0.1317,-0.13149 -0.33915,-0.20376 -0.60268,-0.20376 h -1.0345 v 2.30227 h 1.06733 c 0.51389,0 0.85316,-0.22053 0.85316,-0.63154 v -0.007 c 0,-0.31254 -0.18767,-0.46714 -0.45792,-0.55915" />
      <path
         inkscape:connector-curvature="0"
         id="path2993"
         style="fill:#525759;fill-opacity:1;fill-rule:nonzero;stroke:none;stroke-width:0.12914599"
         d="m 106.73744,182.0042 -0.64559,-1.01945 h -0.47783 l 0.91585,1.39432 v 0.90783 h 0.40855 v -0.91763 l 0.91572,-1.38452 h -0.46451 z" />
      <path
         inkscape:connector-curvature="0"
         id="path2999"
         style="fill:#525759;fill-opacity:1;fill-rule:nonzero;stroke:none;stroke-width:0.12914599"
         d="m 117.57025,181.92972 c -0.0619,0.0649 -0.14838,0.0976 -0.25966,0.0976 h -0.46103 v -0.67168 h 0.46103 c 0.10443,0 0.18922,0.0314 0.25436,0.0939 0.065,0.0625 0.0976,0.14388 0.0976,0.2435 0,0.0928 -0.0309,0.17163 -0.0923,0.23667 m 0.44242,0.13395 c 0.064,-0.1124 0.0959,-0.24196 0.0959,-0.38817 0,-0.0739 -0.0146,-0.15175 -0.0437,-0.23292 -0.0292,-0.0812 -0.0748,-0.15614 -0.13765,-0.22454 -0.0627,-0.0683 -0.14527,-0.12465 -0.24725,-0.1684 -0.1021,-0.0441 -0.2267,-0.0663 -0.37288,-0.0663 h -0.87914 v 2.32073 h 0.4216 v -0.91505 h 0.44022 l 0.47034,0.91505 h 0.49489 l -0.53677,-0.97054 c 0.13248,-0.0676 0.23045,-0.15744 0.29443,-0.26983" />
      <path
         d="m 122.17368,183.30402 h 0.43919 v -2.32059 h -0.43919 z"
         style="fill:#525759;fill-opacity:1;fill-rule:nonzero;stroke:none;stroke-width:0.12914599"
         id="path3003"
         inkscape:connector-curvature="0" />
      <path
         inkscape:connector-curvature="0"
         id="path3009"
         style="fill:#525759;fill-opacity:1;fill-rule:nonzero;stroke:none;stroke-width:0.12914599"
         d="m 120.38927,181.92972 c -0.0614,0.0649 -0.14799,0.0976 -0.25953,0.0976 h -0.46064 v -0.67168 h 0.46064 c 0.1043,0 0.18935,0.0314 0.25462,0.0939 0.0646,0.0625 0.0976,0.14388 0.0976,0.2435 0,0.0928 -0.0309,0.17163 -0.0927,0.23667 m 0.4428,0.13395 c 0.0637,-0.1124 0.0956,-0.24196 0.0956,-0.38817 0,-0.0739 -0.0143,-0.15175 -0.0434,-0.23292 -0.0291,-0.0812 -0.075,-0.15614 -0.13765,-0.22454 -0.0626,-0.0683 -0.14527,-0.12465 -0.24751,-0.1684 -0.10223,-0.0441 -0.22644,-0.0663 -0.37288,-0.0663 h -0.87876 v 2.32073 h 0.42161 v -0.91505 h 0.43983 l 0.47046,0.91505 h 0.49477 l -0.5369,-0.97054 c 0.13261,-0.0676 0.23071,-0.15744 0.29481,-0.26983" />
      <path
         inkscape:connector-curvature="0"
         id="path3015"
         style="fill:#525759;fill-opacity:1;fill-rule:nonzero;stroke:none;stroke-width:0.12914599"
         d="m 111.88799,180.98344 -0.6885,1.09584 -0.69924,-1.09584 h -0.40777 l -0.11142,2.3206 h 0.41127 l 0.0765,-1.58298 0.61548,0.92189 h 0.2055 l 0.61212,-0.94641 0.0766,1.6075 h 0.42846 l -0.11154,-2.3206 z" />
      <path
         inkscape:connector-curvature="0"
         id="path3021"
         style="fill:#525759;fill-opacity:1;fill-rule:nonzero;stroke:none;stroke-width:0.12914599"
         d="m 125.57769,182.44464 c -0.0348,0.0998 -0.0849,0.18724 -0.14967,0.26273 -0.0654,0.0755 -0.14437,0.13511 -0.2373,0.17937 -0.0928,0.0439 -0.19646,0.0661 -0.31006,0.0661 -0.1162,0 -0.22024,-0.0222 -0.31188,-0.0661 -0.0916,-0.0443 -0.17022,-0.10388 -0.23523,-0.17937 -0.0651,-0.0755 -0.1149,-0.16298 -0.1498,-0.26273 -0.0349,-0.0998 -0.0525,-0.20402 -0.0525,-0.31319 0,-0.11124 0.0176,-0.21628 0.0525,-0.31487 0.0349,-0.0986 0.0847,-0.18492 0.1498,-0.25925 0.065,-0.0742 0.14359,-0.13265 0.23523,-0.17563 0.0916,-0.0428 0.19568,-0.0645 0.31188,-0.0645 0.1136,0 0.21726,0.0217 0.31006,0.0645 0.0929,0.043 0.1719,0.10143 0.2373,0.17563 0.0647,0.0743 0.1149,0.16066 0.14967,0.25925 0.0349,0.0986 0.0521,0.20363 0.0521,0.31487 0,0.10917 -0.0172,0.21344 -0.0521,0.31319 m 0.16053,-1.16733 c -0.10948,-0.11021 -0.23704,-0.19705 -0.38361,-0.26093 -0.14631,-0.0639 -0.30425,-0.0959 -0.47395,-0.0959 -0.16958,0 -0.32791,0.032 -0.47564,0.0959 -0.14773,0.0639 -0.2753,0.15072 -0.38296,0.26093 -0.10831,0.11033 -0.19387,0.2395 -0.25669,0.38803 -0.0627,0.1484 -0.094,0.30726 -0.094,0.47656 0,0.16944 0.0313,0.32842 0.094,0.47669 0.0628,0.14853 0.1489,0.27848 0.25811,0.38959 0.10922,0.11149 0.23666,0.19898 0.38322,0.2626 0.14631,0.0641 0.30438,0.0958 0.47396,0.0958 0.1697,0 0.32764,-0.0316 0.47395,-0.0958 0.14657,-0.0636 0.27413,-0.15111 0.38361,-0.2626 0.10921,-0.11111 0.19516,-0.24106 0.25772,-0.38959 0.0624,-0.14827 0.0941,-0.30725 0.0941,-0.47669 0,-0.1693 -0.0317,-0.32816 -0.0941,-0.47656 -0.0626,-0.14853 -0.14851,-0.2777 -0.25772,-0.38803" />
      <path
         inkscape:connector-curvature="0"
         id="path3027"
         style="fill:#525759;fill-opacity:1;fill-rule:nonzero;stroke:none;stroke-width:0.12914599"
         d="m 129.42229,181.36956 h 0.78751 v 1.9345 h 0.43918 v -1.9345 h 0.78777 v -0.3861 h -2.01446 z" />
      <path
         inkscape:connector-curvature="0"
         id="path3033"
         style="fill:#525759;fill-opacity:1;fill-rule:nonzero;stroke:none;stroke-width:0.12914599"
         d="m 114.07448,182.35416 0.31045,-0.90099 0.30684,0.90099 z m 0.0978,-1.37071 -0.88173,2.32047 h 0.46012 l 0.20202,-0.58766 h 0.86428 l 0.20214,0.58766 h 0.48804 l -0.88185,-2.32047 z" />
      <path
         inkscape:connector-curvature="0"
         id="path3039"
         style="fill:#525759;fill-opacity:1;fill-rule:nonzero;stroke:none;stroke-width:0.12914599"
         d="m 126.66389,181.36956 h 0.78725 v 1.9345 h 0.43931 v -1.9345 h 0.78738 v -0.3861 h -2.01394 z" />
    </g>
    <g
       id="g5680"
       style="fill:#d99a29;fill-opacity:1"
       transform="translate(0.13229499,-0.13228805)">
      <path
         inkscape:connector-curvature="0"
         id="path3045"
         style="fill:#d99a29;fill-opacity:1;fill-rule:nonzero;stroke:none;stroke-width:0.12914599"
         d="m 61.916152,177.79225 c -1.460762,0 -2.358907,-1.17275 -2.358907,-2.50294 0,-1.30089 0.868548,-2.40447 2.349084,-2.40447 1.115282,0 1.914681,0.73903 1.914681,0.73903 l 0.61199,-0.94602 c 0,0 -0.87837,-0.95583 -2.585866,-0.95583 -2.062929,0 -3.602532,1.55692 -3.602532,3.58691 0,2.05954 1.480407,3.64626 3.622177,3.64626 1.786467,0 2.75376,-1.13339 2.75376,-1.13339 l -0.671315,-0.91647 c 0,0 -0.819045,0.88692 -2.033072,0.88692" />
      <path
         inkscape:connector-curvature="0"
         id="path3051"
         style="fill:#d99a29;fill-opacity:1;fill-rule:nonzero;stroke:none;stroke-width:0.12914599"
         d="m 70.256569,177.79225 c -1.283046,0 -2.309534,-1.06435 -2.309534,-2.50294 0,-1.37961 1.026488,-2.40447 2.309534,-2.40447 1.283046,0 2.309534,1.02486 2.309534,2.40447 0,1.43859 -1.026488,2.50294 -2.309534,2.50294 m 0,-6.07023 c -2.062799,0 -3.622177,1.56698 -3.622177,3.56729 0,2.05942 1.559378,3.66588 3.622177,3.66588 2.062928,0 3.622306,-1.60646 3.622306,-3.66588 0,-2.00031 -1.559378,-3.56729 -3.622306,-3.56729" />
      <path
         inkscape:connector-curvature="0"
         id="path3057"
         style="fill:#d99a29;fill-opacity:1;fill-rule:nonzero;stroke:none;stroke-width:0.12914599"
         d="m 80.811199,176.31406 c 0,0.94602 -0.621683,1.4782 -1.559378,1.4782 -0.937695,0 -1.549555,-0.53218 -1.549555,-1.46826 v -4.48377 h -1.273223 v 4.48377 c 0,1.56685 1.135057,2.6312 2.832601,2.6312 1.687721,0 2.822778,-1.06435 2.822778,-2.6312 v -4.48377 h -1.273223 z" />
      <path
         inkscape:connector-curvature="0"
         id="path3063"
         style="fill:#d99a29;fill-opacity:1;fill-rule:nonzero;stroke:none;stroke-width:0.12914599"
         d="m 87.678394,175.12164 h -1.14475 v -2.18742 h 0.967163 c 0.996891,0 1.283046,0.41384 1.283046,1.08384 0,0.69954 -0.424322,1.10358 -1.105459,1.10358 m 1.214156,0.75891 v -0.0196 c 0.740204,-0.29564 1.1843,-1.07429 1.1843,-1.91178 0,-0.92628 -0.444096,-1.59641 -1.145008,-1.91179 -0.305801,-0.13808 -0.651281,-0.19718 -1.41126,-0.19718 h -2.260161 v 6.99664 h 1.273223 v -2.61134 h 1.223721 l 1.391743,2.61134 h 1.421212 l -1.440987,-2.61134 c -0.138166,-0.24647 -0.236783,-0.34493 -0.236783,-0.34493" />
      <path
         inkscape:connector-curvature="0"
         id="path3069"
         style="fill:#d99a29;fill-opacity:1;fill-rule:nonzero;stroke:none;stroke-width:0.12914599"
         d="m 92.452055,172.93419 h 2.299582 v 5.9026 h 1.273222 v -5.9026 h 2.299582 v -1.09403 h -5.872386 z" />
      <path
         inkscape:connector-curvature="0"
         id="path3075"
         style="fill:#d99a29;fill-opacity:1;fill-rule:nonzero;stroke:none;stroke-width:0.12914599"
         d="m 104.36343,178.83683 v -2.92685 l 2.32931,-4.06979 h -1.44099 l -1.08568,2.05955 c -0.22696,0.43371 -0.42445,0.93634 -0.42445,0.93634 h -0.0196 c -0.01,0.01 -0.19749,-0.50263 -0.42445,-0.93634 l -1.09551,-2.05955 h -1.44098 l 2.32918,4.06979 v 2.92685 z" />
      <path
         inkscape:connector-curvature="0"
         id="path3081"
         style="fill:#d99a29;fill-opacity:1;fill-rule:nonzero;stroke:none;stroke-width:0.12914599"
         d="m 119.89762,175.12164 h -1.14488 v -2.18742 h 0.96729 c 0.99689,0 1.28305,0.41384 1.28305,1.08384 0,0.69954 -0.42432,1.10358 -1.10546,1.10358 m 1.21403,0.75891 v -0.0196 c 0.74033,-0.29564 1.18443,-1.07429 1.18443,-1.91178 0,-0.92628 -0.4441,-1.59641 -1.14488,-1.91179 -0.30593,-0.13808 -0.65141,-0.19718 -1.41139,-0.19718 h -2.26029 v 6.99664 h 1.27322 v -2.61134 h 1.22385 l 1.39174,2.61134 h 1.42122 l -1.44099,-2.61134 c -0.13817,-0.24647 -0.23691,-0.34493 -0.23691,-0.34493" />
      <path
         inkscape:connector-curvature="0"
         id="path3087"
         style="fill:#d99a29;fill-opacity:1;fill-rule:nonzero;stroke:none;stroke-width:0.12914599"
         d="m 126.78021,177.74298 v -4.80882 h 1.04613 c 1.40157,0 2.32944,0.83762 2.32944,2.39454 0,1.57666 -0.9081,2.41428 -2.32944,2.41428 z m 4.68809,-2.41428 c 0,-2.20743 -1.41126,-3.48845 -3.57281,-3.48845 h -2.3885 v 6.99664 h 2.3885 c 2.16155,0 3.57281,-1.30064 3.57281,-3.50819" />
      <path
         inkscape:connector-curvature="0"
         id="path3093"
         style="fill:#d99a29;fill-opacity:1;fill-rule:nonzero;stroke:none;stroke-width:0.12914599"
         d="m 110.75203,176.29237 c -0.0419,0.0219 -0.0834,0.0445 -0.1246,0.0674 l 0.83081,-2.01592 h 0.0198 l 0.58627,1.44606 c -0.45315,0.11034 -0.89595,0.27758 -1.31226,0.5025 m 3.84474,2.54449 -3.1141,-6.99664 h -0.0389 l -3.11424,6.99664 h 1.27685 l 9e-4,-0.002 c 9e-4,6.5e-4 0.003,0.002 0.003,0.002 0.0518,-0.093 0.1034,-0.16853 0.16867,-0.25215 0,0 0.26354,-0.36984 0.38451,-0.50869 0.12098,-0.13886 0.29572,-0.30571 0.45069,-0.45359 0.0813,-0.0696 0.16958,-0.13047 0.2541,-0.19692 0.083,-0.0687 0.17475,-0.12505 0.2669,-0.18105 0.36448,-0.23035 0.76515,-0.41346 1.18702,-0.53902 l 0.10223,-0.0272 0.87527,2.15865 z" />
      <path
         inkscape:connector-curvature="0"
         id="path3099"
         style="fill:#d99a29;fill-opacity:1;fill-rule:nonzero;stroke:none;stroke-width:0.12914599"
         d="m 133.13702,172.67435 c 0.12291,0 0.20318,-0.0799 0.20318,-0.21073 0,-0.12814 -0.0803,-0.2026 -0.20318,-0.2026 h -0.22437 v 0.41333 z m -0.34212,-0.52018 h 0.35543 c 0.18173,0 0.31007,0.12272 0.31007,0.30945 0,0.15756 -0.0962,0.25873 -0.20576,0.28545 v 0.006 c 0,0 0.0107,0.0133 0.0348,0.0586 l 0.21107,0.40817 h -0.13093 l -0.22722,-0.44546 h -0.22967 v 0.44546 h -0.11775 z m 0.31007,1.38748 c 0.47046,0 0.83106,-0.371 0.83106,-0.85388 0,-0.48017 -0.3606,-0.85363 -0.83106,-0.85363 -0.46232,0 -0.82034,0.37346 -0.82034,0.85363 0,0.48288 0.35802,0.85388 0.82034,0.85388 m 0,-1.81964 c 0.52914,0 0.95139,0.42687 0.95139,0.96576 0,0.54173 -0.42225,0.96577 -0.95139,0.96577 -0.521,0 -0.94054,-0.42404 -0.94054,-0.96577 0,-0.53889 0.41954,-0.96576 0.94054,-0.96576" />
    </g>
  </g>
</svg>
