<?xml version="1.0" encoding="UTF-8"?>
<svg xmlns="http://www.w3.org/2000/svg" version="1.1" viewBox="0 0 16 19">
  <!-- Generator: Adobe Illustrator 28.7.3, SVG Export Plug-In . SVG Version: 1.2.0 Build 164)  -->
  <g>
    <g id="Layer_1">
      <g id="a5agNb.tif">
        <g>
          <path d="M8,19c-1.8,0-3.7,0-5.5,0-1.2,0-2.2-.8-2.4-2,0-.4,0-.9.2-1.3.8-2,2.3-3.5,4.3-4.3,3.2-1.3,6.2-.9,8.9,1.2,1.1.8,1.9,1.9,2.4,3.2.6,1.6-.5,3.3-2.2,3.3-1.9,0-3.7,0-5.6,0Z"/>
          <path d="M8,0c2.6,0,4.7,2.2,4.7,4.8,0,2.6-2.2,4.7-4.8,4.7-2.6,0-4.7-2.2-4.7-4.8C3.3,2.1,5.4,0,8,0Z"/>
        </g>
      </g>
    </g>
  </g>
</svg>