<?xml version="1.0" encoding="UTF-8"?>
<svg xmlns="http://www.w3.org/2000/svg" version="1.1" viewBox="0 0 17 17.8">
  <!-- Generator: Adobe Illustrator 28.7.3, SVG Export Plug-In . SVG Version: 1.2.0 Build 164)  -->
  <g>
    <g id="Layer_1">
      <g>
        <path d="M0,6.4c0,0,0,.1,0,.2,0,3.2,0,6.3,0,9.5,0,.1,0,.3,0,.4.2.8.9,1.4,1.7,1.4,4.5,0,8.9,0,13.4,0,1.1,0,1.8-.7,1.8-1.8,0-3.1,0-6.3,0-9.4v-.2H0ZM2.6,9.4c0-.5.3-.8.8-.9.3,0,.6,0,.9,0,.5,0,.8.4.8.8,0,.3,0,.6,0,.9,0,.5-.4.8-.9.8-.3,0-.6,0-.8,0-.5,0-.8-.4-.8-.8,0-.1,0-.3,0-.4,0-.1,0-.3,0-.4ZM5.1,14.9c0,.5-.4.8-.9.8-.3,0-.6,0-.8,0-.5,0-.8-.4-.9-.9,0-.1,0-.3,0-.4,0-.1,0-.3,0-.4,0-.5.4-.8.8-.8.3,0,.6,0,.9,0,.5,0,.8.3.8.8,0,.3,0,.6,0,.9ZM9.8,14.8c0,.5-.3.8-.8.9-.3,0-.6,0-.9,0-.5,0-.8-.4-.8-.9,0-.3,0-.5,0-.8,0-.5.4-.8.8-.9.3,0,.6,0,.9,0,.5,0,.8.4.8.8,0,.1,0,.3,0,.4,0,.1,0,.3,0,.4ZM9.8,10.2c0,.5-.4.8-.8.8-.2,0-.3,0-.5,0,0,0,0,0,0,0-.2,0-.3,0-.5,0-.4,0-.8-.4-.8-.8,0-.3,0-.6,0-1,0-.4.4-.8.8-.8.3,0,.6,0,.9,0,.5,0,.8.4.8.9,0,.3,0,.6,0,.8ZM14.4,14.9c0,.5-.3.8-.8.9-.3,0-.6,0-.9,0-.5,0-.8-.4-.8-.8,0-.3,0-.6,0-.9,0-.5.4-.8.9-.8.3,0,.6,0,.8,0,.5,0,.8.4.8.8,0,.1,0,.3,0,.4,0,0,0,0,0,0,0,.1,0,.3,0,.4ZM14.4,10.2c0,.5-.4.8-.8.8-.2,0-.3,0-.5,0h0c-.1,0-.3,0-.4,0-.5,0-.8-.3-.9-.8,0-.3,0-.6,0-.9,0-.5.4-.8.8-.8.3,0,.6,0,.9,0,.5,0,.8.4.8.9,0,.3,0,.6,0,.9Z"/>
        <path d="M0,5.5h17c0,0,0,0,0-.1,0-.8,0-1.6,0-2.4,0-.1,0-.2,0-.3-.2-.9-1.1-1.5-2.1-1.3,0,.2,0,.3,0,.5,0,.6-.3,1.1-.9,1.4-1.1.6-2.5-.2-2.5-1.4,0-.2,0-.3,0-.5h-6c0,.2,0,.3,0,.5,0,.8-.7,1.6-1.5,1.6-.9,0-1.7-.5-1.8-1.4,0-.2,0-.5,0-.7,0,0-.2,0-.3,0C.8,1.2,0,2,0,3.1c0,.7,0,1.4,0,2.1v.3Z"/>
        <path d="M3.9,2.5c.4,0,.8-.4.8-.8,0-.2,0-.3,0-.5,0-.2,0-.3,0-.5,0-.4-.4-.8-.8-.8-.4,0-.8.3-.9.7,0,.4,0,.8,0,1.1,0,.4.5.7.9.7Z"/>
        <path d="M13.1,2.5c.4,0,.8-.3.9-.7,0-.2,0-.4,0-.6,0-.2,0-.4,0-.6,0-.4-.4-.7-.9-.7-.4,0-.8.4-.8.8,0,.3,0,.6,0,1,0,.4.4.8.8.8Z"/>
      </g>
    </g>
  </g>
</svg>