<?xml version="1.0" encoding="UTF-8"?>
<svg xmlns="http://www.w3.org/2000/svg" version="1.1" viewBox="0 0 22 17.3">
  <defs>
    <style>
      .cls-1 {
        fill: #fff;
      }
    </style>
  </defs>
  <!-- Generator: Adobe Illustrator 28.7.3, SVG Export Plug-In . SVG Version: 1.2.0 Build 164)  -->
  <g>
    <g id="Layer_1">
      <g id="b2MTBe.tif">
        <g>
          <path class="cls-1" d="M11,7.1c-2.3,0-4.6,0-7,0C1.7,7.1,0,8.8,0,11.1c0,1.5,0,2.9,0,4.4,0,.3,0,.7,0,1,0,.6.6,1,1.1.7.3-.2.4-.4.4-.8,0-.6,0-.7.7-.7,4,0,8,0,12.1,0s3.7,0,5.5,0c.5,0,.6.1.6.6,0,0,0,.2,0,.2,0,.2.1.4.3.6.2.2.5.3.8.1.3-.1.5-.4.5-.8,0-1.8,0-3.7,0-5.5,0-.2,0-.5,0-.7-.4-1.9-2-3.2-3.9-3.2-2.3,0-4.7,0-7,0ZM11,0C9,0,7.1,0,5.1,0c-1.6,0-2.7,1.2-2.8,2.8,0,1.1,0,2.3,0,3.4,0,.3,0,.3.4.3.4,0,.9-.1,1.3-.2.2,0,.3,0,.3-.3.2-.8.8-1.3,1.6-1.3.8,0,1.7,0,2.5,0,.9,0,1.5.4,1.7,1.3,0,.2.1.2.3.2.3,0,.7,0,1,0,.2,0,.3,0,.3-.3.2-.8.8-1.3,1.6-1.3.9,0,1.7,0,2.6,0,.9,0,1.4.5,1.6,1.3,0,.2.2.3.4.3.4,0,.8,0,1.3.2.3,0,.4,0,.4-.3,0-1.1,0-2.2,0-3.2,0-1.7-1.2-2.9-2.9-2.9-1.9,0-3.8,0-5.7,0Z"/>
          <path d="M11,7.1c2.3,0,4.7,0,7,0,1.9,0,3.5,1.3,3.9,3.2,0,.2,0,.5,0,.7,0,1.8,0,3.7,0,5.5,0,.4-.2.6-.5.8-.3.1-.6,0-.8-.1-.1-.1-.2-.4-.3-.6,0,0,0-.1,0-.2,0-.5-.1-.6-.6-.6-1.8,0-3.7,0-5.5,0-4,0-8,0-12.1,0-.6,0-.7,0-.7.7,0,.3-.1.6-.4.8-.5.3-1.1,0-1.1-.7,0-.3,0-.7,0-1,0-1.5,0-2.9,0-4.4,0-2.3,1.7-4,4-4,2.3,0,4.6,0,7,0Z"/>
          <path d="M11,0c1.9,0,3.8,0,5.7,0,1.7,0,2.9,1.2,2.9,2.9,0,1.1,0,2.2,0,3.2,0,.3,0,.4-.4.3-.4,0-.8-.1-1.3-.2-.2,0-.3,0-.4-.3-.2-.8-.8-1.3-1.6-1.3-.9,0-1.7,0-2.6,0-.9,0-1.4.5-1.6,1.3,0,.2-.1.3-.3.3-.3,0-.7,0-1,0-.2,0-.3,0-.3-.2-.2-.9-.8-1.3-1.7-1.3-.8,0-1.7,0-2.5,0-.8,0-1.4.5-1.6,1.3,0,.2-.1.3-.3.3-.4,0-.9,0-1.3.2-.3,0-.4,0-.4-.3,0-1.1,0-2.3,0-3.4C2.4,1.2,3.6,0,5.1,0c2,0,3.9,0,5.9,0Z"/>
        </g>
      </g>
    </g>
  </g>
</svg>