<?xml version="1.0" encoding="UTF-8"?>
<svg width="12px" height="13px" viewBox="0 0 12 13" version="1.1" xmlns="http://www.w3.org/2000/svg" xmlns:xlink="http://www.w3.org/1999/xlink">
    <title>Group 2</title>
    <g id="Main" stroke="none" stroke-width="1" fill="none" fill-rule="evenodd">
        <g id="Hotel-occupancy---Admin" transform="translate(-1040, -976)" fill="#525759">
            <g id="Group-3" transform="translate(868, 976)">
                <g id="Group-2" transform="translate(172, 0)">
                    <path d="M0.265670554,11.8843294 C-0.0885568513,11.530102 -0.0885568513,11.0341837 0.265670554,10.7508017 L5.01231778,6.075 L0.265670554,1.47004373 C0.0531341108,1.18666181 -0.0177113703,0.69074344 0.194825073,0.407361516 L0.194825073,0.265670554 C0.619897959,-0.0885568513 1.11581633,-0.0885568513 1.47004373,0.265670554 L6.78345481,5.50823615 C7.13768222,5.86246356 7.13768222,6.35838192 6.78345481,6.64176385 L1.47004373,11.8843294 C1.11581633,12.2385569 0.619897959,12.2385569 0.265670554,11.8843294" id="Fill-1-Copy-3" transform="translate(3.5246, 6.075) scale(-1, 1) rotate(180) translate(-3.5246, -6.075)"></path>
                    <path d="M4.51639942,11.8843294 C4.16217201,11.530102 4.16217201,11.0341837 4.51639942,10.7508017 L9.26304665,6.075 L4.51639942,1.47004373 C4.30386297,1.18666181 4.23301749,0.69074344 4.44555394,0.407361516 L4.44555394,0.265670554 C4.87062682,-0.0885568513 5.36654519,-0.0885568513 5.72077259,0.265670554 L11.0341837,5.50823615 C11.3884111,5.86246356 11.3884111,6.35838192 11.0341837,6.64176385 L5.72077259,11.8843294 C5.36654519,12.2385569 4.87062682,12.2385569 4.51639942,11.8843294" id="Fill-1-Copy-4" transform="translate(7.7753, 6.075) scale(-1, 1) rotate(180) translate(-7.7753, -6.075)"></path>
                </g>
            </g>
        </g>
    </g>
</svg>